#N canvas 684 192 1303 746 12;
#X obj 29 100 mtof;
#X obj 29 44 notein;
#X obj 318 39 adc~ 1;
#X obj 608 474 dac~ 1 2;
#X text 27 17 Notas Midi IN;
#X text 279 15 Entrada de Micro;
#X text 605 444 Salida Audio;
#X obj 136 99 bp~ 200 20;
#X obj 224 99 bp~ 400 30;
#X obj 311 98 bp~ 800 50;
#X obj 398 98 bp~ 1600 100;
#X obj 503 97 bp~ 3200 200;
#X obj 27 216 phasor~;
#X obj 167 382 *~ 0;
#X obj 136 194 / 127;
#X connect 0 0 12 0;
#X connect 1 0 0 0;
#X connect 1 1 14 0;
#X connect 2 0 7 0;
#X connect 2 0 8 0;
#X connect 2 0 9 0;
#X connect 2 0 10 0;
#X connect 2 0 11 0;
#X connect 12 0 13 0;
#X connect 13 0 3 0;
#X connect 14 0 13 1;
