#N canvas 10 10 800 600 10;
#X obj 100 50 notein;
#X obj 100 80 stripnote;
#X obj 100 110 mtof;
#X obj 250 50 ctlin 7;
#X obj 250 80 / 127;
#X obj 250 110 s volume;
#X obj 100 150 phasor~;
#X obj 200 150 phasor~;
#X obj 200 130 * 1.01;
#X obj 100 180 -~ 0.5;
#X obj 200 180 -~ 0.5;
#X obj 100 210 *~ 2;
#X obj 200 210 *~ 2;
#X obj 100 240 clip~ -1 1;
#X obj 200 240 clip~ -1 1;
#X obj 100 270 +~;
#X obj 100 300 lop~ 8000;
#X obj 100 330 hip~ 200;
#X obj 100 360 *~;
#X obj 250 140 r volume;
#X obj 100 390 dac~;
#X connect 0 0 1 0;
#X connect 0 1 1 1;
#X connect 1 0 2 0;
#X connect 2 0 6 0;
#X connect 2 0 8 0;
#X connect 6 0 9 0;
#X connect 7 0 10 0;
#X connect 8 0 7 0;
#X connect 9 0 11 0;
#X connect 10 0 12 0;
#X connect 11 0 13 0;
#X connect 12 0 14 0;
#X connect 13 0 15 0;
#X connect 14 0 15 1;
#X connect 15 0 16 0;
#X connect 16 0 17 0;
#X connect 17 0 18 0;
#X connect 19 0 18 1;
#X connect 18 0 20 0;
#X connect 18 0 20 1;
