#N canvas 200 200 600 400 10;
#X obj 50 50 adc~;
#X obj 50 100 hip~ 100;
#X obj 50 150 lop~ 5000;
#X obj 50 200 *~ 0.5;
#X obj 50 250 dac~;
#X obj 200 100 env~ 1024;
#X obj 200 150 tabwrite~ scope;
#X obj 200 200 metro 50;
#X obj 200 250 bang;
#X obj 200 300 toggle 1;
#X obj 350 100 table scope 2048;
#X connect 0 0 1 0;
#X connect 1 0 2 0;
#X connect 2 0 3 0;
#X connect 3 0 4 0;
#X connect 2 0 5 0;
#X connect 5 0 6 0;
#X connect 7 0 6 0;
#X connect 8 0 7 0;
#X connect 9 0 7 0;
