#N canvas 0 0 800 600 10;
#X obj 0 0 adc~ 1;
#X obj 0 20 tabwrite~ raw_signal;
#X obj 0 200 lop~ 1000;
#X obj 0 220 hip~ 100;
#X obj 0 240 tabwrite~ filtered_signal;
#X obj 0 400 dac~;
#X obj 200 20 hsl 128 15 0 20000 0 0;
#X obj 200 60 hsl 128 15 0 20000 0 0;
#X obj 200 100 tgl 15 0;
#X obj 200 140 vradio 15 1 5;
#X msg 200 180 \; pd dsp 1;
#X floatatom 200 200 5 0 0 1 - - -;
#X connect 0 0 1 0;
#X connect 0 0 2 0;
#X connect 0 0 3 0;
#X connect 2 0 4 0;
#X connect 3 0 4 0;
#X connect 2 0 5 0;
#X connect 3 0 5 0;
#X connect 6 0 2 0;
#X connect 7 0 3 0;
#X connect 8 0 9 0;
#X connect 9 0 10 0;
#X connect 10 0 11 0;